<svg width="146" height="50" viewBox="0 0 146 50" fill="none" xmlns="http://www.w3.org/2000/svg">
<path d="M91.652 20.7599C91.5904 20.0829 91.3165 19.5566 90.8303 19.1811C90.3501 18.7995 89.6638 18.6087 88.7713 18.6087C88.1804 18.6087 87.688 18.6856 87.294 18.8395C86.9001 18.9934 86.6046 19.2057 86.4077 19.4766C86.2107 19.7412 86.1091 20.0459 86.103 20.3906C86.0907 20.6738 86.1461 20.9231 86.2692 21.1385C86.3984 21.3539 86.5831 21.5447 86.8232 21.7109C87.0694 21.871 87.3648 22.0125 87.7095 22.1357C88.0542 22.2588 88.442 22.3665 88.8729 22.4588L90.4979 22.8281C91.4335 23.0312 92.2583 23.3021 92.9723 23.6406C93.6925 23.9792 94.2957 24.3823 94.782 24.8501C95.2744 25.3179 95.6468 25.8565 95.8991 26.4659C96.1515 27.0753 96.2808 27.7585 96.2869 28.5156C96.2808 29.7098 95.9792 30.7346 95.3821 31.5902C94.785 32.4458 93.9264 33.1013 92.8061 33.5568C91.692 34.0123 90.3471 34.2401 88.7713 34.2401C87.1894 34.2401 85.8106 34.0031 84.6349 33.5291C83.4593 33.0552 82.5452 32.335 81.8928 31.3686C81.2403 30.4022 80.9048 29.1804 80.8864 27.7031H85.2628C85.2997 28.3125 85.4628 28.8203 85.7521 29.2266C86.0414 29.6328 86.4384 29.9406 86.9432 30.1499C87.4541 30.3591 88.045 30.4638 88.7159 30.4638C89.3314 30.4638 89.8546 30.3807 90.2855 30.2145C90.7225 30.0483 91.058 29.8175 91.2919 29.522C91.5258 29.2266 91.6458 28.888 91.652 28.5064C91.6458 28.1494 91.535 27.8447 91.3196 27.5923C91.1042 27.3338 90.7718 27.1122 90.3224 26.9276C89.8793 26.7367 89.313 26.5613 88.6236 26.4013L86.6477 25.9396C85.0104 25.5642 83.7209 24.9579 82.7791 24.1207C81.8374 23.2775 81.3696 22.1387 81.3757 20.7045C81.3696 19.535 81.6835 18.5102 82.3175 17.63C82.9515 16.7498 83.8286 16.0634 84.9489 15.571C86.0691 15.0786 87.3464 14.8324 88.7805 14.8324C90.2455 14.8324 91.5166 15.0817 92.5938 15.5803C93.6771 16.0727 94.5173 16.7652 95.1143 17.6577C95.7114 18.5502 96.0161 19.5843 96.0284 20.7599H91.652ZM102.593 34.2401C101.688 34.2401 100.885 34.0893 100.183 33.7876C99.4877 33.4799 98.9368 33.0182 98.5305 32.4027C98.1304 31.781 97.9304 31.0024 97.9304 30.0668C97.9304 29.2789 98.0689 28.6141 98.3459 28.0724C98.6229 27.5308 99.0045 27.0907 99.4908 26.7521C99.977 26.4136 100.537 26.1581 101.171 25.9858C101.805 25.8073 102.482 25.6873 103.202 25.6257C104.009 25.5518 104.658 25.4749 105.151 25.3949C105.643 25.3087 106 25.1887 106.222 25.0348C106.449 24.8748 106.563 24.6501 106.563 24.3608V24.3146C106.563 23.8407 106.4 23.4744 106.074 23.2159C105.748 22.9574 105.308 22.8281 104.754 22.8281C104.156 22.8281 103.676 22.9574 103.313 23.2159C102.95 23.4744 102.719 23.8314 102.621 24.2869L98.4567 24.1392C98.5798 23.2775 98.8968 22.508 99.4077 21.831C99.9247 21.1477 100.633 20.6122 101.531 20.2244C102.436 19.8305 103.522 19.6335 104.79 19.6335C105.695 19.6335 106.529 19.7412 107.293 19.9567C108.056 20.166 108.721 20.4737 109.287 20.88C109.853 21.2801 110.29 21.7725 110.598 22.3572C110.912 22.942 111.069 23.6098 111.069 24.3608V34H106.822V32.0241H106.711C106.459 32.5043 106.135 32.9105 105.741 33.2429C105.354 33.5753 104.895 33.8246 104.366 33.9908C103.843 34.157 103.252 34.2401 102.593 34.2401ZM103.987 31.2855C104.473 31.2855 104.911 31.187 105.298 30.9901C105.692 30.7931 106.006 30.5223 106.24 30.1776C106.474 29.8267 106.591 29.4205 106.591 28.9588V27.6108C106.462 27.6785 106.305 27.7401 106.12 27.7955C105.942 27.8509 105.745 27.9032 105.529 27.9524C105.314 28.0017 105.092 28.0447 104.864 28.0817C104.637 28.1186 104.418 28.1525 104.209 28.1832C103.784 28.2509 103.421 28.3556 103.119 28.4972C102.824 28.6387 102.596 28.8234 102.436 29.0511C102.282 29.2727 102.205 29.5374 102.205 29.8452C102.205 30.313 102.371 30.67 102.704 30.9162C103.042 31.1624 103.47 31.2855 103.987 31.2855ZM119.009 34.2031C117.963 34.2031 117.012 33.9323 116.156 33.3906C115.301 32.849 114.617 32.0365 114.107 30.9531C113.596 29.8698 113.34 28.5249 113.34 26.9183C113.34 25.2502 113.605 23.8776 114.134 22.8004C114.664 21.7232 115.356 20.9261 116.212 20.4091C117.073 19.892 118 19.6335 118.991 19.6335C119.736 19.6335 120.373 19.7628 120.902 20.0213C121.431 20.2737 121.868 20.5999 122.213 21C122.558 21.4001 122.819 21.8156 122.998 22.2464H123.09V15.0909H127.605V34H123.136V31.701H122.998C122.807 32.138 122.536 32.5473 122.185 32.929C121.835 33.3106 121.394 33.6184 120.865 33.8523C120.342 34.0862 119.723 34.2031 119.009 34.2031ZM120.579 30.6854C121.127 30.6854 121.594 30.5315 121.982 30.2237C122.37 29.9098 122.669 29.4697 122.878 28.9034C123.087 28.3371 123.192 27.6723 123.192 26.9091C123.192 26.1335 123.087 25.4657 122.878 24.9055C122.675 24.3454 122.376 23.9145 121.982 23.6129C121.594 23.3113 121.127 23.1605 120.579 23.1605C120.019 23.1605 119.545 23.3144 119.157 23.6222C118.769 23.9299 118.474 24.3639 118.271 24.924C118.074 25.4841 117.975 26.1458 117.975 26.9091C117.975 27.6723 118.077 28.3371 118.28 28.9034C118.483 29.4697 118.775 29.9098 119.157 30.2237C119.545 30.5315 120.019 30.6854 120.579 30.6854ZM137.08 34.2678C135.591 34.2678 134.311 33.9631 133.24 33.3537C132.175 32.7382 131.353 31.8826 130.774 30.7869C130.202 29.6851 129.916 28.4079 129.916 26.9553C129.916 25.4964 130.202 24.2192 130.774 23.1236C131.353 22.0218 132.175 21.1662 133.24 20.5568C134.311 19.9413 135.591 19.6335 137.08 19.6335C138.57 19.6335 139.847 19.9413 140.912 20.5568C141.983 21.1662 142.805 22.0218 143.377 23.1236C143.956 24.2192 144.245 25.4964 144.245 26.9553C144.245 28.4079 143.956 29.6851 143.377 30.7869C142.805 31.8826 141.983 32.7382 140.912 33.3537C139.847 33.9631 138.57 34.2678 137.08 34.2678ZM137.108 30.8608C137.65 30.8608 138.108 30.6946 138.484 30.3622C138.859 30.0298 139.146 29.5682 139.343 28.9773C139.546 28.3864 139.647 27.7031 139.647 26.9276C139.647 26.1397 139.546 25.4503 139.343 24.8594C139.146 24.2685 138.859 23.8068 138.484 23.4744C138.108 23.142 137.65 22.9759 137.108 22.9759C136.548 22.9759 136.074 23.142 135.686 23.4744C135.305 23.8068 135.012 24.2685 134.809 24.8594C134.612 25.4503 134.514 26.1397 134.514 26.9276C134.514 27.7031 134.612 28.3864 134.809 28.9773C135.012 29.5682 135.305 30.0298 135.686 30.3622C136.074 30.6946 136.548 30.8608 137.108 30.8608Z" fill="#111827"/>
<g clipPath="url(#clip0_4015_2)">
<path d="M66.1938 5.76343L59.1311 14.9291L61.8282 22.7866L66.1938 5.76343Z" fill="#FF621F"/>
<path d="M66.2195 5.75317L56.4265 11.9165L48.8604 8.48858L66.2195 5.75317Z" fill="#10B981"/>
<path d="M13.9504 45.5207C17.9967 48.3417 22.9156 50.0001 28.2228 50.0001C42.0302 50.0001 53.2222 38.8081 53.2222 25.0007C53.2222 23.4382 53.0727 21.9127 52.798 20.4307C45.8669 29.7535 29.0495 49.5798 13.9504 45.5207Z" fill="#FF621F"/>
<path d="M51.7912 16.6564C48.3557 6.95286 39.1031 0 28.2228 0C14.4155 0 3.22218 11.192 3.22218 24.9994C3.22218 26.9414 3.44576 28.8297 3.86483 30.6439C1.97138 30.9339 0 29.0098 0 29.0098C1.36323 31.5702 3.23623 33.3052 5.08752 34.4819C5.09646 34.5036 5.10413 34.5254 5.11307 34.5471C5.91798 35.03 6.78293 35.4631 7.71305 35.8337C9.33819 36.4942 10.7053 36.7599 11.3581 36.8583C19.9872 38.3506 32.9015 34.4653 51.7912 16.6564Z" fill="#10B981"/>
</g>
<defs>
<clipPath id="clip0_4015_2">
<rect width="66.2195" height="50" fill="white"/>
</clipPath>
</defs>
</svg>
