<svg width="772" height="189" viewBox="0 0 772 189" fill="none" xmlns="http://www.w3.org/2000/svg">
<rect opacity="0.2" x="1" y="1" width="770" height="187" rx="9" stroke="#111827" stroke-width="2" stroke-dasharray="8 8"/>
<g clipPath="url(#clip0_211_1098)">
<path d="M394.75 50H377.25C375.593 50.002 374.004 50.6611 372.833 51.8328C371.661 53.0044 371.002 54.593 371 56.25V73.75C371.002 75.407 371.661 76.9956 372.833 78.1672C374.004 79.3389 375.593 79.998 377.25 80H394.75C396.407 79.998 397.996 79.3389 399.167 78.1672C400.339 76.9956 400.998 75.407 401 73.75V56.25C400.998 54.593 400.339 53.0044 399.167 51.8328C397.996 50.6611 396.407 50.002 394.75 50ZM377.25 52.5H394.75C395.745 52.5 396.698 52.8951 397.402 53.5983C398.105 54.3016 398.5 55.2554 398.5 56.25V73.75C398.498 74.3069 398.37 74.856 398.125 75.3563L386.671 63.9025C386.091 63.322 385.402 62.8614 384.643 62.5472C383.885 62.2331 383.072 62.0713 382.251 62.0713C381.43 62.0713 380.617 62.2331 379.859 62.5472C379.101 62.8614 378.412 63.322 377.831 63.9025L373.5 68.2325V56.25C373.5 55.2554 373.895 54.3016 374.598 53.5983C375.302 52.8951 376.255 52.5 377.25 52.5ZM377.25 77.5C376.255 77.5 375.302 77.1049 374.598 76.4017C373.895 75.6984 373.5 74.7446 373.5 73.75V71.7675L379.597 65.67C379.946 65.3215 380.359 65.0451 380.814 64.8565C381.27 64.6679 381.757 64.5708 382.25 64.5708C382.743 64.5708 383.23 64.6679 383.686 64.8565C384.141 65.0451 384.554 65.3215 384.903 65.67L396.356 77.125C395.856 77.3696 395.307 77.4978 394.75 77.5H377.25Z" fill="#555555"/>
<path d="M391 63.125C391.865 63.125 392.711 62.8684 393.431 62.3877C394.15 61.907 394.711 61.2237 395.042 60.4242C395.373 59.6248 395.46 58.7451 395.291 57.8965C395.122 57.0478 394.705 56.2683 394.094 55.6564C393.482 55.0446 392.702 54.6279 391.854 54.4591C391.005 54.2903 390.125 54.3769 389.326 54.708C388.526 55.0392 387.843 55.5999 387.362 56.3194C386.882 57.0388 386.625 57.8847 386.625 58.75C386.625 59.9103 387.086 61.0231 387.906 61.8436C388.727 62.6641 389.84 63.125 391 63.125ZM391 56.875C391.371 56.875 391.733 56.985 392.042 57.191C392.35 57.397 392.59 57.6899 392.732 58.0325C392.874 58.3751 392.911 58.7521 392.839 59.1158C392.767 59.4795 392.588 59.8136 392.326 60.0758C392.064 60.3381 391.73 60.5166 391.366 60.589C391.002 60.6613 390.625 60.6242 390.282 60.4823C389.94 60.3404 389.647 60.1 389.441 59.7917C389.235 59.4834 389.125 59.1208 389.125 58.75C389.125 58.2527 389.323 57.7758 389.674 57.4242C390.026 57.0725 390.503 56.875 391 56.875Z" fill="#555555"/>
</g>
<path d="M283.664 114.24C282.773 114.24 281.987 114.056 281.304 113.688C280.621 113.32 280.085 112.805 279.696 112.144C279.312 111.477 279.12 110.696 279.12 109.8V102.488L280.56 102.48V109.68C280.56 110.224 280.651 110.699 280.832 111.104C281.019 111.504 281.264 111.837 281.568 112.104C281.872 112.371 282.205 112.571 282.568 112.704C282.936 112.832 283.301 112.896 283.664 112.896C284.032 112.896 284.4 112.829 284.768 112.696C285.136 112.563 285.469 112.365 285.768 112.104C286.072 111.837 286.315 111.501 286.496 111.096C286.677 110.691 286.768 110.219 286.768 109.68V102.48H288.208V109.8C288.208 110.691 288.013 111.469 287.624 112.136C287.24 112.803 286.707 113.32 286.024 113.688C285.341 114.056 284.555 114.24 283.664 114.24ZM294.416 114.24C293.605 114.24 292.923 114.04 292.368 113.64C291.813 113.235 291.392 112.688 291.104 112C290.821 111.307 290.68 110.531 290.68 109.672C290.68 108.803 290.821 108.024 291.104 107.336C291.392 106.648 291.813 106.107 292.368 105.712C292.928 105.317 293.613 105.12 294.424 105.12C295.224 105.12 295.912 105.32 296.488 105.72C297.069 106.115 297.515 106.656 297.824 107.344C298.133 108.032 298.288 108.808 298.288 109.672C298.288 110.536 298.133 111.312 297.824 112C297.515 112.688 297.069 113.235 296.488 113.64C295.912 114.04 295.221 114.24 294.416 114.24ZM290.44 117.84V105.36H291.712V111.72H291.872V117.84H290.44ZM294.24 112.936C294.811 112.936 295.283 112.792 295.656 112.504C296.029 112.216 296.309 111.827 296.496 111.336C296.683 110.84 296.776 110.285 296.776 109.672C296.776 109.064 296.683 108.515 296.496 108.024C296.315 107.533 296.032 107.144 295.648 106.856C295.269 106.568 294.787 106.424 294.2 106.424C293.64 106.424 293.176 106.563 292.808 106.84C292.44 107.112 292.165 107.493 291.984 107.984C291.803 108.469 291.712 109.032 291.712 109.672C291.712 110.301 291.8 110.864 291.976 111.36C292.157 111.851 292.435 112.237 292.808 112.52C293.181 112.797 293.659 112.936 294.24 112.936ZM300.202 114V102.24H301.626V114H300.202ZM307.706 114.24C306.848 114.24 306.106 114.045 305.482 113.656C304.864 113.267 304.386 112.728 304.05 112.04C303.714 111.352 303.546 110.563 303.546 109.672C303.546 108.765 303.717 107.971 304.058 107.288C304.4 106.605 304.882 106.075 305.506 105.696C306.13 105.312 306.864 105.12 307.706 105.12C308.57 105.12 309.314 105.315 309.938 105.704C310.562 106.088 311.04 106.624 311.37 107.312C311.706 107.995 311.874 108.781 311.874 109.672C311.874 110.573 311.706 111.368 311.37 112.056C311.034 112.739 310.554 113.275 309.93 113.664C309.306 114.048 308.565 114.24 307.706 114.24ZM307.706 112.888C308.602 112.888 309.269 112.589 309.706 111.992C310.144 111.395 310.362 110.621 310.362 109.672C310.362 108.696 310.141 107.92 309.698 107.344C309.256 106.763 308.592 106.472 307.706 106.472C307.104 106.472 306.608 106.608 306.218 106.88C305.829 107.152 305.538 107.528 305.346 108.008C305.154 108.488 305.058 109.043 305.058 109.672C305.058 110.643 305.282 111.421 305.73 112.008C306.178 112.595 306.837 112.888 307.706 112.888ZM316.092 114.24C315.446 114.24 314.905 114.123 314.468 113.888C314.036 113.648 313.708 113.333 313.484 112.944C313.265 112.555 313.156 112.128 313.156 111.664C313.156 111.211 313.241 110.819 313.412 110.488C313.588 110.152 313.833 109.875 314.148 109.656C314.462 109.432 314.838 109.256 315.276 109.128C315.686 109.016 316.145 108.92 316.652 108.84C317.164 108.755 317.681 108.677 318.204 108.608C318.726 108.539 319.214 108.472 319.668 108.408L319.156 108.704C319.172 107.936 319.017 107.368 318.692 107C318.372 106.632 317.817 106.448 317.028 106.448C316.505 106.448 316.046 106.568 315.652 106.808C315.262 107.043 314.988 107.427 314.828 107.96L313.476 107.552C313.684 106.795 314.086 106.2 314.684 105.768C315.281 105.336 316.068 105.12 317.044 105.12C317.828 105.12 318.5 105.261 319.06 105.544C319.625 105.821 320.03 106.243 320.276 106.808C320.398 107.075 320.476 107.365 320.508 107.68C320.54 107.989 320.556 108.315 320.556 108.656V114H319.292V111.928L319.588 112.12C319.262 112.819 318.806 113.347 318.22 113.704C317.638 114.061 316.929 114.24 316.092 114.24ZM316.308 113.048C316.82 113.048 317.262 112.957 317.636 112.776C318.014 112.589 318.318 112.347 318.548 112.048C318.777 111.744 318.926 111.413 318.996 111.056C319.076 110.789 319.118 110.493 319.124 110.168C319.134 109.837 319.14 109.584 319.14 109.408L319.636 109.624C319.172 109.688 318.716 109.749 318.268 109.808C317.82 109.867 317.396 109.931 316.996 110C316.596 110.064 316.236 110.141 315.916 110.232C315.681 110.307 315.46 110.403 315.252 110.52C315.049 110.637 314.884 110.789 314.756 110.976C314.633 111.157 314.572 111.384 314.572 111.656C314.572 111.891 314.63 112.115 314.748 112.328C314.87 112.541 315.057 112.715 315.308 112.848C315.564 112.981 315.897 113.048 316.308 113.048ZM326.028 114.24C325.222 114.24 324.532 114.04 323.956 113.64C323.38 113.235 322.934 112.688 322.62 112C322.31 111.312 322.156 110.536 322.156 109.672C322.156 108.808 322.31 108.032 322.62 107.344C322.934 106.656 323.38 106.115 323.956 105.72C324.532 105.32 325.22 105.12 326.02 105.12C326.836 105.12 327.521 105.317 328.076 105.712C328.63 106.107 329.049 106.648 329.332 107.336C329.62 108.024 329.764 108.803 329.764 109.672C329.764 110.531 329.62 111.307 329.332 112C329.049 112.688 328.63 113.235 328.076 113.64C327.521 114.04 326.838 114.24 326.028 114.24ZM326.204 112.936C326.785 112.936 327.262 112.797 327.636 112.52C328.009 112.237 328.284 111.851 328.46 111.36C328.641 110.864 328.732 110.301 328.732 109.672C328.732 109.032 328.641 108.469 328.46 107.984C328.284 107.493 328.012 107.112 327.644 106.84C327.276 106.563 326.809 106.424 326.244 106.424C325.657 106.424 325.172 106.568 324.788 106.856C324.409 107.144 324.126 107.533 323.94 108.024C323.758 108.515 323.668 109.064 323.668 109.672C323.668 110.285 323.761 110.84 323.948 111.336C324.134 111.827 324.414 112.216 324.788 112.504C325.166 112.792 325.638 112.936 326.204 112.936ZM328.732 114V107.64H328.572V102.48H330.004V114H328.732ZM337.904 114.24C337.259 114.24 336.717 114.123 336.28 113.888C335.848 113.648 335.52 113.333 335.296 112.944C335.077 112.555 334.968 112.128 334.968 111.664C334.968 111.211 335.053 110.819 335.224 110.488C335.4 110.152 335.645 109.875 335.96 109.656C336.275 109.432 336.651 109.256 337.088 109.128C337.499 109.016 337.957 108.92 338.464 108.84C338.976 108.755 339.493 108.677 340.016 108.608C340.539 108.539 341.027 108.472 341.48 108.408L340.968 108.704C340.984 107.936 340.829 107.368 340.504 107C340.184 106.632 339.629 106.448 338.84 106.448C338.317 106.448 337.859 106.568 337.464 106.808C337.075 107.043 336.8 107.427 336.64 107.96L335.288 107.552C335.496 106.795 335.899 106.2 336.496 105.768C337.093 105.336 337.88 105.12 338.856 105.12C339.64 105.12 340.312 105.261 340.872 105.544C341.437 105.821 341.843 106.243 342.088 106.808C342.211 107.075 342.288 107.365 342.32 107.68C342.352 107.989 342.368 108.315 342.368 108.656V114H341.104V111.928L341.4 112.12C341.075 112.819 340.619 113.347 340.032 113.704C339.451 114.061 338.741 114.24 337.904 114.24ZM338.12 113.048C338.632 113.048 339.075 112.957 339.448 112.776C339.827 112.589 340.131 112.347 340.36 112.048C340.589 111.744 340.739 111.413 340.808 111.056C340.888 110.789 340.931 110.493 340.936 110.168C340.947 109.837 340.952 109.584 340.952 109.408L341.448 109.624C340.984 109.688 340.528 109.749 340.08 109.808C339.632 109.867 339.208 109.931 338.808 110C338.408 110.064 338.048 110.141 337.728 110.232C337.493 110.307 337.272 110.403 337.064 110.52C336.861 110.637 336.696 110.789 336.568 110.976C336.445 111.157 336.384 111.384 336.384 111.656C336.384 111.891 336.443 112.115 336.56 112.328C336.683 112.541 336.869 112.715 337.12 112.848C337.376 112.981 337.709 113.048 338.12 113.048ZM348.475 114V104.888C348.475 104.664 348.486 104.437 348.507 104.208C348.529 103.973 348.577 103.747 348.651 103.528C348.726 103.304 348.849 103.099 349.019 102.912C349.217 102.693 349.433 102.539 349.667 102.448C349.902 102.352 350.139 102.293 350.379 102.272C350.625 102.251 350.857 102.24 351.075 102.24H352.171V103.424H351.155C350.734 103.424 350.419 103.528 350.211 103.736C350.003 103.939 349.899 104.248 349.899 104.664V114H348.475ZM347.011 106.536V105.36H352.171V106.536H347.011ZM353.851 103.832V102.36H355.275V103.832H353.851ZM353.851 114V105.36H355.275V114H353.851ZM357.843 114V102.24H359.267V114H357.843ZM365.411 114.24C364.563 114.24 363.822 114.053 363.187 113.68C362.558 113.301 362.067 112.776 361.715 112.104C361.363 111.427 361.187 110.637 361.187 109.736C361.187 108.792 361.36 107.976 361.707 107.288C362.054 106.595 362.536 106.061 363.155 105.688C363.779 105.309 364.51 105.12 365.347 105.12C366.216 105.12 366.955 105.32 367.563 105.72C368.176 106.12 368.635 106.691 368.939 107.432C369.248 108.173 369.382 109.056 369.339 110.08H367.899V109.568C367.883 108.507 367.667 107.715 367.251 107.192C366.835 106.664 366.216 106.4 365.395 106.4C364.515 106.4 363.846 106.683 363.387 107.248C362.928 107.813 362.699 108.624 362.699 109.68C362.699 110.699 362.928 111.488 363.387 112.048C363.846 112.608 364.499 112.888 365.347 112.888C365.918 112.888 366.414 112.757 366.835 112.496C367.256 112.235 367.587 111.859 367.827 111.368L369.195 111.84C368.859 112.603 368.352 113.195 367.675 113.616C367.003 114.032 366.248 114.24 365.411 114.24ZM362.219 110.08V108.936H368.603V110.08H362.219Z" fill="#FF621F"/>
<path d="M377.931 114.24C377.072 114.24 376.339 114.045 375.731 113.656C375.123 113.267 374.656 112.728 374.331 112.04C374.006 111.352 373.843 110.563 373.843 109.672C373.843 108.765 374.008 107.971 374.339 107.288C374.67 106.605 375.139 106.075 375.747 105.696C376.36 105.312 377.088 105.12 377.931 105.12C378.795 105.12 379.531 105.315 380.139 105.704C380.752 106.088 381.219 106.624 381.539 107.312C381.864 107.995 382.027 108.781 382.027 109.672C382.027 110.579 381.864 111.376 381.539 112.064C381.214 112.747 380.744 113.28 380.131 113.664C379.518 114.048 378.784 114.24 377.931 114.24ZM377.931 113.112C378.891 113.112 379.606 112.795 380.075 112.16C380.544 111.52 380.779 110.691 380.779 109.672C380.779 108.627 380.542 107.795 380.067 107.176C379.598 106.557 378.886 106.248 377.931 106.248C377.286 106.248 376.752 106.395 376.331 106.688C375.915 106.976 375.603 107.379 375.395 107.896C375.192 108.408 375.091 109 375.091 109.672C375.091 110.712 375.331 111.547 375.811 112.176C376.291 112.8 376.998 113.112 377.931 113.112ZM383.792 114V105.36H384.848V107.44L384.64 107.168C384.736 106.912 384.861 106.677 385.016 106.464C385.171 106.245 385.339 106.067 385.52 105.928C385.744 105.731 386.005 105.581 386.304 105.48C386.603 105.373 386.904 105.312 387.208 105.296C387.512 105.275 387.789 105.296 388.04 105.36V106.464C387.725 106.384 387.381 106.365 387.008 106.408C386.635 106.451 386.291 106.6 385.976 106.856C385.688 107.08 385.472 107.349 385.328 107.664C385.184 107.973 385.088 108.304 385.04 108.656C384.992 109.003 384.968 109.347 384.968 109.688V114H383.792ZM396.113 114.24C395.307 114.24 394.619 114.04 394.049 113.64C393.478 113.235 393.041 112.688 392.737 112C392.433 111.312 392.281 110.536 392.281 109.672C392.281 108.813 392.43 108.04 392.729 107.352C393.033 106.664 393.467 106.12 394.033 105.72C394.598 105.32 395.275 105.12 396.065 105.12C396.875 105.12 397.558 105.317 398.113 105.712C398.667 106.107 399.086 106.648 399.369 107.336C399.657 108.019 399.801 108.797 399.801 109.672C399.801 110.531 399.659 111.307 399.377 112C399.094 112.688 398.678 113.235 398.129 113.64C397.579 114.04 396.907 114.24 396.113 114.24ZM396.233 113.144C396.846 113.144 397.353 112.995 397.753 112.696C398.153 112.397 398.451 111.987 398.649 111.464C398.846 110.936 398.945 110.339 398.945 109.672C398.945 108.995 398.846 108.397 398.649 107.88C398.451 107.357 398.153 106.949 397.753 106.656C397.358 106.363 396.859 106.216 396.257 106.216C395.638 106.216 395.126 106.368 394.721 106.672C394.315 106.976 394.014 107.389 393.817 107.912C393.625 108.435 393.529 109.021 393.529 109.672C393.529 110.328 393.627 110.92 393.825 111.448C394.027 111.971 394.329 112.384 394.729 112.688C395.129 112.992 395.63 113.144 396.233 113.144ZM398.945 114V107.496H398.817V102.48H400.001V114H398.945ZM402.245 114V105.36H403.301V107.44L403.093 107.168C403.189 106.912 403.314 106.677 403.469 106.464C403.624 106.245 403.792 106.067 403.973 105.928C404.197 105.731 404.458 105.581 404.757 105.48C405.056 105.373 405.357 105.312 405.661 105.296C405.965 105.275 406.242 105.296 406.493 105.36V106.464C406.178 106.384 405.834 106.365 405.461 106.408C405.088 106.451 404.744 106.6 404.429 106.856C404.141 107.08 403.925 107.349 403.781 107.664C403.637 107.973 403.541 108.304 403.493 108.656C403.445 109.003 403.421 109.347 403.421 109.688V114H402.245ZM410.17 114.24C409.519 114.24 408.973 114.123 408.53 113.888C408.093 113.653 407.765 113.341 407.546 112.952C407.327 112.563 407.218 112.139 407.218 111.68C407.218 111.211 407.311 110.811 407.498 110.48C407.69 110.144 407.949 109.869 408.274 109.656C408.605 109.443 408.986 109.28 409.418 109.168C409.855 109.061 410.338 108.968 410.866 108.888C411.399 108.803 411.919 108.731 412.426 108.672C412.938 108.608 413.386 108.547 413.77 108.488L413.354 108.744C413.37 107.891 413.205 107.259 412.858 106.848C412.511 106.437 411.909 106.232 411.05 106.232C410.458 106.232 409.957 106.365 409.546 106.632C409.141 106.899 408.855 107.32 408.69 107.896L407.546 107.56C407.743 106.787 408.141 106.187 408.738 105.76C409.335 105.333 410.111 105.12 411.066 105.12C411.855 105.12 412.525 105.269 413.074 105.568C413.629 105.861 414.021 106.288 414.25 106.848C414.357 107.099 414.426 107.379 414.458 107.688C414.49 107.997 414.506 108.312 414.506 108.632V114H413.458V111.832L413.762 111.96C413.469 112.701 413.013 113.267 412.394 113.656C411.775 114.045 411.034 114.24 410.17 114.24ZM410.306 113.224C410.855 113.224 411.335 113.125 411.746 112.928C412.157 112.731 412.487 112.461 412.738 112.12C412.989 111.773 413.151 111.384 413.226 110.952C413.29 110.675 413.325 110.371 413.33 110.04C413.335 109.704 413.338 109.453 413.338 109.288L413.786 109.52C413.386 109.573 412.951 109.627 412.482 109.68C412.018 109.733 411.559 109.795 411.106 109.864C410.658 109.933 410.253 110.016 409.89 110.112C409.645 110.181 409.407 110.28 409.178 110.408C408.949 110.531 408.759 110.696 408.61 110.904C408.466 111.112 408.394 111.371 408.394 111.68C408.394 111.931 408.455 112.173 408.578 112.408C408.706 112.643 408.909 112.837 409.186 112.992C409.469 113.147 409.842 113.224 410.306 113.224ZM420.021 118.08C419.578 118.08 419.141 118.013 418.709 117.88C418.282 117.752 417.887 117.547 417.525 117.264C417.162 116.987 416.858 116.624 416.613 116.176L417.677 115.584C417.917 116.064 418.253 116.408 418.685 116.616C419.122 116.829 419.567 116.936 420.021 116.936C420.645 116.936 421.149 116.819 421.533 116.584C421.922 116.355 422.205 116.013 422.381 115.56C422.557 115.107 422.642 114.541 422.637 113.864V111.56H422.773V105.36H423.821V113.88C423.821 114.125 423.813 114.36 423.797 114.584C423.786 114.813 423.762 115.037 423.725 115.256C423.623 115.901 423.413 116.432 423.093 116.848C422.778 117.264 422.362 117.573 421.845 117.776C421.333 117.979 420.725 118.08 420.021 118.08ZM419.941 114.24C419.135 114.24 418.447 114.04 417.877 113.64C417.306 113.235 416.869 112.688 416.565 112C416.261 111.312 416.109 110.536 416.109 109.672C416.109 108.813 416.258 108.04 416.557 107.352C416.861 106.664 417.295 106.12 417.861 105.72C418.426 105.32 419.103 105.12 419.893 105.12C420.703 105.12 421.386 105.317 421.941 105.712C422.495 106.107 422.914 106.648 423.197 107.336C423.485 108.019 423.629 108.797 423.629 109.672C423.629 110.531 423.487 111.307 423.205 112C422.922 112.688 422.506 113.235 421.957 113.64C421.407 114.04 420.735 114.24 419.941 114.24ZM420.061 113.144C420.674 113.144 421.181 112.995 421.581 112.696C421.981 112.397 422.279 111.987 422.477 111.464C422.674 110.936 422.773 110.339 422.773 109.672C422.773 108.995 422.674 108.397 422.477 107.88C422.279 107.357 421.981 106.949 421.581 106.656C421.186 106.363 420.687 106.216 420.085 106.216C419.466 106.216 418.954 106.368 418.549 106.672C418.143 106.976 417.842 107.389 417.645 107.912C417.453 108.435 417.357 109.021 417.357 109.672C417.357 110.328 417.455 110.92 417.653 111.448C417.855 111.971 418.157 112.384 418.557 112.688C418.957 112.992 419.458 113.144 420.061 113.144ZM431.733 114.24C431.082 114.24 430.535 114.123 430.093 113.888C429.655 113.653 429.327 113.341 429.109 112.952C428.89 112.563 428.781 112.139 428.781 111.68C428.781 111.211 428.874 110.811 429.061 110.48C429.253 110.144 429.511 109.869 429.837 109.656C430.167 109.443 430.549 109.28 430.981 109.168C431.418 109.061 431.901 108.968 432.429 108.888C432.962 108.803 433.482 108.731 433.989 108.672C434.501 108.608 434.949 108.547 435.333 108.488L434.917 108.744C434.933 107.891 434.767 107.259 434.421 106.848C434.074 106.437 433.471 106.232 432.613 106.232C432.021 106.232 431.519 106.365 431.109 106.632C430.703 106.899 430.418 107.32 430.253 107.896L429.109 107.56C429.306 106.787 429.703 106.187 430.301 105.76C430.898 105.333 431.674 105.12 432.629 105.12C433.418 105.12 434.087 105.269 434.637 105.568C435.191 105.861 435.583 106.288 435.813 106.848C435.919 107.099 435.989 107.379 436.021 107.688C436.053 107.997 436.069 108.312 436.069 108.632V114H435.021V111.832L435.325 111.96C435.031 112.701 434.575 113.267 433.957 113.656C433.338 114.045 432.597 114.24 431.733 114.24ZM431.869 113.224C432.418 113.224 432.898 113.125 433.309 112.928C433.719 112.731 434.05 112.461 434.301 112.12C434.551 111.773 434.714 111.384 434.789 110.952C434.853 110.675 434.887 110.371 434.893 110.04C434.898 109.704 434.901 109.453 434.901 109.288L435.349 109.52C434.949 109.573 434.514 109.627 434.045 109.68C433.581 109.733 433.122 109.795 432.669 109.864C432.221 109.933 431.815 110.016 431.453 110.112C431.207 110.181 430.97 110.28 430.741 110.408C430.511 110.531 430.322 110.696 430.173 110.904C430.029 111.112 429.957 111.371 429.957 111.68C429.957 111.931 430.018 112.173 430.141 112.408C430.269 112.643 430.471 112.837 430.749 112.992C431.031 113.147 431.405 113.224 431.869 113.224ZM444.391 114V109.592C444.391 109.112 444.346 108.672 444.255 108.272C444.165 107.867 444.018 107.515 443.815 107.216C443.618 106.912 443.359 106.677 443.039 106.512C442.725 106.347 442.341 106.264 441.887 106.264C441.471 106.264 441.103 106.336 440.783 106.48C440.469 106.624 440.202 106.832 439.983 107.104C439.77 107.371 439.607 107.696 439.495 108.08C439.383 108.464 439.327 108.901 439.327 109.392L438.495 109.208C438.495 108.323 438.65 107.579 438.959 106.976C439.269 106.373 439.695 105.917 440.239 105.608C440.783 105.299 441.407 105.144 442.111 105.144C442.629 105.144 443.079 105.224 443.463 105.384C443.853 105.544 444.181 105.76 444.447 106.032C444.719 106.304 444.938 106.616 445.103 106.968C445.269 107.315 445.389 107.685 445.463 108.08C445.538 108.469 445.575 108.859 445.575 109.248V114H444.391ZM438.143 114V105.36H439.207V107.488H439.327V114H438.143ZM450.941 114.24C450.135 114.24 449.447 114.04 448.877 113.64C448.306 113.235 447.869 112.688 447.565 112C447.261 111.312 447.109 110.536 447.109 109.672C447.109 108.813 447.258 108.04 447.557 107.352C447.861 106.664 448.295 106.12 448.861 105.72C449.426 105.32 450.103 105.12 450.893 105.12C451.703 105.12 452.386 105.317 452.941 105.712C453.495 106.107 453.914 106.648 454.197 107.336C454.485 108.019 454.629 108.797 454.629 109.672C454.629 110.531 454.487 111.307 454.205 112C453.922 112.688 453.506 113.235 452.957 113.64C452.407 114.04 451.735 114.24 450.941 114.24ZM451.061 113.144C451.674 113.144 452.181 112.995 452.581 112.696C452.981 112.397 453.279 111.987 453.477 111.464C453.674 110.936 453.773 110.339 453.773 109.672C453.773 108.995 453.674 108.397 453.477 107.88C453.279 107.357 452.981 106.949 452.581 106.656C452.186 106.363 451.687 106.216 451.085 106.216C450.466 106.216 449.954 106.368 449.549 106.672C449.143 106.976 448.842 107.389 448.645 107.912C448.453 108.435 448.357 109.021 448.357 109.672C448.357 110.328 448.455 110.92 448.653 111.448C448.855 111.971 449.157 112.384 449.557 112.688C449.957 112.992 450.458 113.144 451.061 113.144ZM453.773 114V107.496H453.645V102.48H454.829V114H453.773ZM463.628 114.24C462.823 114.24 462.135 114.04 461.564 113.64C460.994 113.235 460.556 112.688 460.252 112C459.948 111.312 459.796 110.536 459.796 109.672C459.796 108.813 459.946 108.04 460.244 107.352C460.548 106.664 460.983 106.12 461.548 105.72C462.114 105.32 462.791 105.12 463.58 105.12C464.391 105.12 465.074 105.317 465.628 105.712C466.183 106.107 466.602 106.648 466.884 107.336C467.172 108.019 467.316 108.797 467.316 109.672C467.316 110.531 467.175 111.307 466.892 112C466.61 112.688 466.194 113.235 465.644 113.64C465.095 114.04 464.423 114.24 463.628 114.24ZM463.748 113.144C464.362 113.144 464.868 112.995 465.268 112.696C465.668 112.397 465.967 111.987 466.164 111.464C466.362 110.936 466.46 110.339 466.46 109.672C466.46 108.995 466.362 108.397 466.164 107.88C465.967 107.357 465.668 106.949 465.268 106.656C464.874 106.363 464.375 106.216 463.772 106.216C463.154 106.216 462.642 106.368 462.236 106.672C461.831 106.976 461.53 107.389 461.332 107.912C461.14 108.435 461.044 109.021 461.044 109.672C461.044 110.328 461.143 110.92 461.34 111.448C461.543 111.971 461.844 112.384 462.244 112.688C462.644 112.992 463.146 113.144 463.748 113.144ZM466.46 114V107.496H466.332V102.48H467.516V114H466.46ZM469.761 114V105.36H470.817V107.44L470.609 107.168C470.705 106.912 470.83 106.677 470.985 106.464C471.139 106.245 471.307 106.067 471.489 105.928C471.713 105.731 471.974 105.581 472.273 105.48C472.571 105.373 472.873 105.312 473.177 105.296C473.481 105.275 473.758 105.296 474.009 105.36V106.464C473.694 106.384 473.35 106.365 472.977 106.408C472.603 106.451 472.259 106.6 471.945 106.856C471.657 107.08 471.441 107.349 471.297 107.664C471.153 107.973 471.057 108.304 471.009 108.656C470.961 109.003 470.937 109.347 470.937 109.688V114H469.761ZM478.978 114.24C478.119 114.24 477.386 114.045 476.778 113.656C476.17 113.267 475.703 112.728 475.378 112.04C475.053 111.352 474.89 110.563 474.89 109.672C474.89 108.765 475.055 107.971 475.386 107.288C475.717 106.605 476.186 106.075 476.794 105.696C477.407 105.312 478.135 105.12 478.978 105.12C479.842 105.12 480.578 105.315 481.186 105.704C481.799 106.088 482.266 106.624 482.586 107.312C482.911 107.995 483.074 108.781 483.074 109.672C483.074 110.579 482.911 111.376 482.586 112.064C482.261 112.747 481.791 113.28 481.178 113.664C480.565 114.048 479.831 114.24 478.978 114.24ZM478.978 113.112C479.938 113.112 480.653 112.795 481.122 112.16C481.591 111.52 481.826 110.691 481.826 109.672C481.826 108.627 481.589 107.795 481.114 107.176C480.645 106.557 479.933 106.248 478.978 106.248C478.333 106.248 477.799 106.395 477.378 106.688C476.962 106.976 476.65 107.379 476.442 107.896C476.239 108.408 476.138 109 476.138 109.672C476.138 110.712 476.378 111.547 476.858 112.176C477.338 112.8 478.045 113.112 478.978 113.112ZM488.719 114.24C487.924 114.24 487.252 114.04 486.703 113.64C486.153 113.235 485.737 112.688 485.455 112C485.172 111.307 485.031 110.531 485.031 109.672C485.031 108.797 485.172 108.019 485.455 107.336C485.743 106.648 486.164 106.107 486.719 105.712C487.273 105.317 487.956 105.12 488.767 105.12C489.556 105.12 490.233 105.32 490.799 105.72C491.364 106.12 491.796 106.664 492.095 107.352C492.399 108.04 492.551 108.813 492.551 109.672C492.551 110.536 492.399 111.312 492.095 112C491.791 112.688 491.353 113.235 490.783 113.64C490.212 114.04 489.524 114.24 488.719 114.24ZM484.831 117.84V105.36H485.887V111.864H486.015V117.84H484.831ZM488.599 113.144C489.201 113.144 489.703 112.992 490.103 112.688C490.503 112.384 490.801 111.971 490.999 111.448C491.201 110.92 491.303 110.328 491.303 109.672C491.303 109.021 491.204 108.435 491.007 107.912C490.809 107.389 490.508 106.976 490.103 106.672C489.703 106.368 489.193 106.216 488.575 106.216C487.972 106.216 487.471 106.363 487.071 106.656C486.676 106.949 486.38 107.357 486.183 107.88C485.985 108.397 485.887 108.995 485.887 109.672C485.887 110.339 485.985 110.936 486.183 111.464C486.38 111.987 486.679 112.397 487.079 112.696C487.479 112.995 487.985 113.144 488.599 113.144Z" fill="#555555"/>
<path d="M307.98 139V128.92H311.872C311.97 128.92 312.08 128.925 312.201 128.934C312.327 128.939 312.453 128.953 312.579 128.976C313.106 129.055 313.552 129.24 313.916 129.529C314.285 129.814 314.562 130.173 314.749 130.607C314.94 131.041 315.036 131.522 315.036 132.049C315.036 132.572 314.94 133.05 314.749 133.484C314.558 133.918 314.278 134.28 313.909 134.569C313.545 134.854 313.102 135.036 312.579 135.115C312.453 135.134 312.327 135.148 312.201 135.157C312.08 135.166 311.97 135.171 311.872 135.171H309.009V139H307.98ZM309.009 134.191H311.844C311.928 134.191 312.026 134.186 312.138 134.177C312.25 134.168 312.36 134.151 312.467 134.128C312.812 134.053 313.095 133.911 313.314 133.701C313.538 133.491 313.704 133.241 313.811 132.952C313.923 132.663 313.979 132.362 313.979 132.049C313.979 131.736 313.923 131.435 313.811 131.146C313.704 130.852 313.538 130.6 313.314 130.39C313.095 130.18 312.812 130.038 312.467 129.963C312.36 129.94 312.25 129.926 312.138 129.921C312.026 129.912 311.928 129.907 311.844 129.907H309.009V134.191ZM316.429 139V128.92H317.465L323.016 137.18V128.92H324.052V139H323.016L317.465 130.733V139H316.429ZM330.052 139.21C329.343 139.21 328.704 139.086 328.134 138.839C327.565 138.592 327.08 138.239 326.678 137.782C326.282 137.325 325.978 136.774 325.768 136.13C325.558 135.481 325.453 134.758 325.453 133.96C325.453 132.905 325.635 131.986 325.999 131.202C326.368 130.413 326.895 129.802 327.581 129.368C328.267 128.934 329.091 128.717 330.052 128.717C331.126 128.717 331.998 128.969 332.67 129.473C333.347 129.972 333.818 130.644 334.084 131.489L333.048 131.741C332.829 131.125 332.467 130.633 331.963 130.264C331.464 129.895 330.841 129.711 330.094 129.711C329.306 129.706 328.65 129.884 328.127 130.243C327.605 130.598 327.21 131.097 326.944 131.741C326.683 132.38 326.55 133.12 326.545 133.96C326.541 134.8 326.669 135.54 326.93 136.179C327.196 136.814 327.593 137.313 328.12 137.677C328.648 138.036 329.306 138.218 330.094 138.223C330.818 138.223 331.415 138.083 331.886 137.803C332.358 137.523 332.715 137.122 332.957 136.599C333.205 136.076 333.345 135.458 333.377 134.744H331.053V133.862H334.455C334.469 133.969 334.476 134.084 334.476 134.205C334.481 134.322 334.483 134.406 334.483 134.457C334.483 135.367 334.32 136.181 333.993 136.9C333.667 137.614 333.174 138.179 332.516 138.594C331.863 139.005 331.042 139.21 330.052 139.21ZM335.047 140.463L335.11 139.952C335.297 139.966 335.432 139.929 335.516 139.84C335.6 139.751 335.651 139.632 335.67 139.483C335.689 139.334 335.693 139.173 335.684 139H335.047V137.523H336.244V139.28C336.244 139.709 336.134 140.031 335.915 140.246C335.7 140.461 335.411 140.533 335.047 140.463ZM343.431 139.203C342.759 139.203 342.182 139.016 341.702 138.643C341.221 138.27 340.897 137.77 340.729 137.145L341.758 136.9C341.842 137.269 342.035 137.581 342.339 137.838C342.647 138.09 343.008 138.216 343.424 138.216C343.685 138.216 343.949 138.153 344.215 138.027C344.485 137.901 344.698 137.693 344.852 137.404C344.954 137.203 345.013 136.986 345.027 136.753C345.045 136.515 345.055 136.23 345.055 135.899V128.92H346.091V135.899C346.091 136.179 346.088 136.433 346.084 136.662C346.079 136.886 346.053 137.103 346.007 137.313C345.965 137.518 345.883 137.726 345.762 137.936C345.519 138.361 345.192 138.678 344.782 138.888C344.376 139.098 343.925 139.203 343.431 139.203ZM348.203 139V128.92H352.095C352.193 128.92 352.302 128.925 352.424 128.934C352.55 128.939 352.676 128.953 352.802 128.976C353.329 129.055 353.775 129.24 354.139 129.529C354.507 129.814 354.785 130.173 354.972 130.607C355.163 131.041 355.259 131.522 355.259 132.049C355.259 132.572 355.163 133.05 354.972 133.484C354.78 133.918 354.5 134.28 354.132 134.569C353.768 134.854 353.324 135.036 352.802 135.115C352.676 135.134 352.55 135.148 352.424 135.157C352.302 135.166 352.193 135.171 352.095 135.171H349.232V139H348.203ZM349.232 134.191H352.067C352.151 134.191 352.249 134.186 352.361 134.177C352.473 134.168 352.582 134.151 352.69 134.128C353.035 134.053 353.317 133.911 353.537 133.701C353.761 133.491 353.926 133.241 354.034 132.952C354.146 132.663 354.202 132.362 354.202 132.049C354.202 131.736 354.146 131.435 354.034 131.146C353.926 130.852 353.761 130.6 353.537 130.39C353.317 130.18 353.035 130.038 352.69 129.963C352.582 129.94 352.473 129.926 352.361 129.921C352.249 129.912 352.151 129.907 352.067 129.907H349.232V134.191ZM360.691 139.21C359.982 139.21 359.342 139.086 358.773 138.839C358.204 138.592 357.718 138.239 357.317 137.782C356.92 137.325 356.617 136.774 356.407 136.13C356.197 135.481 356.092 134.758 356.092 133.96C356.092 132.905 356.274 131.986 356.638 131.202C357.007 130.413 357.534 129.802 358.22 129.368C358.906 128.934 359.73 128.717 360.691 128.717C361.764 128.717 362.637 128.969 363.309 129.473C363.986 129.972 364.457 130.644 364.723 131.489L363.687 131.741C363.468 131.125 363.106 130.633 362.602 130.264C362.103 129.895 361.48 129.711 360.733 129.711C359.944 129.706 359.289 129.884 358.766 130.243C358.243 130.598 357.849 131.097 357.583 131.741C357.322 132.38 357.189 133.12 357.184 133.96C357.179 134.8 357.308 135.54 357.569 136.179C357.835 136.814 358.232 137.313 358.759 137.677C359.286 138.036 359.944 138.218 360.733 138.223C361.456 138.223 362.054 138.083 362.525 137.803C362.996 137.523 363.353 137.122 363.596 136.599C363.843 136.076 363.983 135.458 364.016 134.744H361.692V133.862H365.094C365.108 133.969 365.115 134.084 365.115 134.205C365.12 134.322 365.122 134.406 365.122 134.457C365.122 135.367 364.959 136.181 364.632 136.9C364.305 137.614 363.813 138.179 363.155 138.594C362.502 139.005 361.68 139.21 360.691 139.21ZM365.686 140.463L365.749 139.952C365.935 139.966 366.071 139.929 366.155 139.84C366.239 139.751 366.29 139.632 366.309 139.483C366.327 139.334 366.332 139.173 366.323 139H365.686V137.523H366.883V139.28C366.883 139.709 366.773 140.031 366.554 140.246C366.339 140.461 366.05 140.533 365.686 140.463ZM376.386 139.21C375.677 139.21 375.038 139.086 374.468 138.839C373.899 138.592 373.414 138.239 373.012 137.782C372.616 137.325 372.312 136.774 372.102 136.13C371.892 135.481 371.787 134.758 371.787 133.96C371.787 132.905 371.969 131.986 372.333 131.202C372.702 130.413 373.229 129.802 373.915 129.368C374.601 128.934 375.425 128.717 376.386 128.717C377.46 128.717 378.332 128.969 379.004 129.473C379.681 129.972 380.152 130.644 380.418 131.489L379.382 131.741C379.163 131.125 378.801 130.633 378.297 130.264C377.798 129.895 377.175 129.711 376.428 129.711C375.64 129.706 374.984 129.884 374.461 130.243C373.939 130.598 373.544 131.097 373.278 131.741C373.017 132.38 372.884 133.12 372.879 133.96C372.875 134.8 373.003 135.54 373.264 136.179C373.53 136.814 373.927 137.313 374.454 137.677C374.982 138.036 375.64 138.218 376.428 138.223C377.152 138.223 377.749 138.083 378.22 137.803C378.692 137.523 379.049 137.122 379.291 136.599C379.539 136.076 379.679 135.458 379.711 134.744H377.387V133.862H380.789C380.803 133.969 380.81 134.084 380.81 134.205C380.815 134.322 380.817 134.406 380.817 134.457C380.817 135.367 380.654 136.181 380.327 136.9C380.001 137.614 379.508 138.179 378.85 138.594C378.197 139.005 377.376 139.21 376.386 139.21ZM382.358 139V128.92H383.387V139H382.358ZM385.486 139V128.92H391.275V129.949H386.515V133.449H390.435V134.471H386.515V139H385.486ZM398.234 139.189C397.782 139.189 397.385 139.119 397.044 138.979C396.708 138.839 396.421 138.65 396.183 138.412C395.95 138.174 395.761 137.903 395.616 137.6C395.472 137.292 395.367 136.968 395.301 136.627C395.236 136.282 395.203 135.939 395.203 135.598V131.44H396.239V135.297C396.239 135.712 396.279 136.097 396.358 136.452C396.438 136.807 396.564 137.117 396.736 137.383C396.914 137.644 397.14 137.847 397.415 137.992C397.695 138.137 398.034 138.209 398.43 138.209C398.794 138.209 399.114 138.146 399.389 138.02C399.669 137.894 399.903 137.714 400.089 137.481C400.281 137.243 400.425 136.956 400.523 136.62C400.621 136.279 400.67 135.897 400.67 135.472L401.398 135.633C401.398 136.408 401.263 137.059 400.992 137.586C400.722 138.113 400.348 138.512 399.872 138.783C399.396 139.054 398.85 139.189 398.234 139.189ZM400.775 139V137.138H400.67V131.44H401.699V139H400.775ZM407.051 139.21C406.355 139.21 405.767 139.035 405.287 138.685C404.806 138.33 404.442 137.852 404.195 137.25C403.947 136.643 403.824 135.964 403.824 135.213C403.824 134.448 403.947 133.766 404.195 133.169C404.447 132.567 404.815 132.093 405.301 131.748C405.786 131.403 406.383 131.23 407.093 131.23C407.783 131.23 408.376 131.405 408.871 131.755C409.365 132.105 409.743 132.581 410.005 133.183C410.271 133.785 410.404 134.462 410.404 135.213C410.404 135.969 410.271 136.648 410.005 137.25C409.739 137.852 409.356 138.33 408.857 138.685C408.357 139.035 407.755 139.21 407.051 139.21ZM403.649 142.36V131.44H404.573V137.131H404.685V142.36H403.649ZM406.946 138.251C407.473 138.251 407.912 138.118 408.262 137.852C408.612 137.586 408.873 137.224 409.046 136.767C409.223 136.305 409.312 135.787 409.312 135.213C409.312 134.644 409.225 134.13 409.053 133.673C408.88 133.216 408.616 132.854 408.262 132.588C407.912 132.322 407.466 132.189 406.925 132.189C406.397 132.189 405.959 132.317 405.609 132.574C405.263 132.831 405.004 133.188 404.832 133.645C404.659 134.098 404.573 134.62 404.573 135.213C404.573 135.796 404.659 136.319 404.832 136.781C405.004 137.238 405.266 137.598 405.616 137.859C405.966 138.12 406.409 138.251 406.946 138.251ZM418.86 139C418.435 139.089 418.015 139.124 417.6 139.105C417.189 139.086 416.82 138.998 416.494 138.839C416.172 138.68 415.927 138.433 415.759 138.097C415.623 137.817 415.549 137.535 415.535 137.25C415.525 136.961 415.521 136.632 415.521 136.263V129.34H416.543V136.221C416.543 136.538 416.545 136.804 416.55 137.019C416.559 137.229 416.608 137.416 416.697 137.579C416.865 137.892 417.131 138.078 417.495 138.139C417.863 138.2 418.318 138.186 418.86 138.097V139ZM413.904 132.322V131.44H418.86V132.322H413.904ZM423.233 139.21C422.481 139.21 421.84 139.04 421.308 138.699C420.776 138.358 420.367 137.887 420.083 137.285C419.798 136.683 419.656 135.992 419.656 135.213C419.656 134.42 419.8 133.724 420.09 133.127C420.379 132.53 420.79 132.065 421.322 131.734C421.858 131.398 422.495 131.23 423.233 131.23C423.989 131.23 424.633 131.4 425.165 131.741C425.701 132.077 426.11 132.546 426.39 133.148C426.674 133.745 426.817 134.434 426.817 135.213C426.817 136.006 426.674 136.704 426.39 137.306C426.105 137.903 425.694 138.37 425.158 138.706C424.621 139.042 423.979 139.21 423.233 139.21ZM423.233 138.223C424.073 138.223 424.698 137.945 425.109 137.39C425.519 136.83 425.725 136.104 425.725 135.213C425.725 134.298 425.517 133.57 425.102 133.029C424.691 132.488 424.068 132.217 423.233 132.217C422.668 132.217 422.201 132.345 421.833 132.602C421.469 132.854 421.196 133.206 421.014 133.659C420.836 134.107 420.748 134.625 420.748 135.213C420.748 136.123 420.958 136.853 421.378 137.404C421.798 137.95 422.416 138.223 423.233 138.223ZM432.921 139V130.068L431.024 131.209V130.054L432.921 128.92H433.964V139H432.921ZM439.909 139.21C439.288 139.21 438.728 139.065 438.229 138.776C437.734 138.487 437.342 138.095 437.053 137.6C436.763 137.101 436.619 136.541 436.619 135.92V132C436.619 131.379 436.763 130.822 437.053 130.327C437.342 129.828 437.734 129.433 438.229 129.144C438.728 128.855 439.288 128.71 439.909 128.71C440.529 128.71 441.087 128.855 441.582 129.144C442.081 129.433 442.475 129.828 442.765 130.327C443.054 130.822 443.199 131.379 443.199 132V135.92C443.199 136.541 443.054 137.101 442.765 137.6C442.475 138.095 442.081 138.487 441.582 138.776C441.087 139.065 440.529 139.21 439.909 139.21ZM439.909 138.216C440.324 138.216 440.702 138.116 441.043 137.915C441.383 137.71 441.654 137.437 441.855 137.096C442.055 136.755 442.156 136.38 442.156 135.969V131.951C442.156 131.536 442.055 131.158 441.855 130.817C441.654 130.476 441.383 130.206 441.043 130.005C440.702 129.8 440.324 129.697 439.909 129.697C439.493 129.697 439.115 129.8 438.775 130.005C438.434 130.206 438.163 130.476 437.963 130.817C437.762 131.158 437.662 131.536 437.662 131.951V135.969C437.662 136.38 437.762 136.755 437.963 137.096C438.163 137.437 438.434 137.71 438.775 137.915C439.115 138.116 439.493 138.216 439.909 138.216ZM445.164 139V128.92H446.109L450.071 137.397L454.012 128.92H454.971V138.993H453.991V131.216L450.4 139H449.735L446.151 131.216V139H445.164ZM456.935 139V128.92H460.827C461.392 128.92 461.884 129.037 462.304 129.27C462.724 129.503 463.051 129.818 463.284 130.215C463.517 130.607 463.634 131.041 463.634 131.517C463.634 132.058 463.489 132.541 463.2 132.966C462.911 133.386 462.523 133.678 462.038 133.841L462.024 133.498C462.677 133.685 463.191 134.011 463.564 134.478C463.937 134.945 464.124 135.509 464.124 136.172C464.124 136.755 464 137.259 463.753 137.684C463.506 138.104 463.158 138.428 462.71 138.657C462.262 138.886 461.742 139 461.149 139H456.935ZM457.971 138.013H460.897C461.308 138.013 461.676 137.941 462.003 137.796C462.33 137.647 462.586 137.437 462.773 137.166C462.964 136.895 463.06 136.569 463.06 136.186C463.06 135.813 462.974 135.477 462.801 135.178C462.628 134.879 462.393 134.641 462.094 134.464C461.8 134.282 461.464 134.191 461.086 134.191H457.971V138.013ZM457.971 133.218H460.82C461.142 133.218 461.436 133.146 461.702 133.001C461.968 132.852 462.178 132.649 462.332 132.392C462.491 132.135 462.57 131.839 462.57 131.503C462.57 131.027 462.404 130.64 462.073 130.341C461.746 130.042 461.329 129.893 460.82 129.893H457.971V133.218Z" fill="#555555"/>
<defs>
<clipPath id="clip0_211_1098">
<rect width="30" height="30" fill="white" transform="translate(371 50)"/>
</clipPath>
</defs>
</svg>
